<svg width="15" height="15" viewBox="0 0 15 15" fill="none" xmlns="http://www.w3.org/2000/svg">
<g clip-path="url(#clip0)">
<path d="M11.9393 1.84131C10.7577 0.654691 9.18363 0.00118111 7.50691 0.00118111H7.49968C4.12327 -0.0679255 1.16111 2.90556 1.23063 6.28074C1.31901 8.66403 3.61178 11.6907 5.39724 14.0161C5.92159 14.6425 6.6856 15 7.50638 15C8.35594 15 9.14473 14.6172 9.67045 13.9497C10.995 12.3038 13.8551 8.34489 13.7687 6.28068C13.7688 4.60276 13.119 3.02617 11.9393 1.84131ZM8.74995 13.2246C8.14445 14.0233 6.87074 14.0248 6.26501 13.226C3.844 10.1432 2.40237 7.57593 2.40237 6.28071C2.40237 3.4643 4.68901 1.17301 7.49968 1.17301H7.50691C10.3136 1.17301 12.597 3.46433 12.597 6.28071C12.597 7.59002 11.1948 10.121 8.74995 13.2246ZM7.5326 8.76026C6.15958 8.76026 5.04254 7.64322 5.04254 6.2702C5.17932 2.96679 9.88639 2.96775 10.0227 6.27022C10.0227 7.64325 8.90562 8.76026 7.5326 8.76026ZM7.5326 4.95193C6.80571 4.95193 6.21433 5.5433 6.21433 6.2702C6.28675 8.01907 8.77872 8.01854 8.85087 6.2702C8.85087 5.5433 8.25953 4.95193 7.5326 4.95193Z" fill="white"/>
</g>
<defs>
<clipPath id="clip0">
<rect width="15" height="15" fill="white"/>
</clipPath>
</defs>
</svg>
