<svg width="190" height="46" viewBox="0 0 190 46" fill="none" xmlns="http://www.w3.org/2000/svg">
<g clip-path="url(#clip0)">
<path d="M20.4945 31.9878L17.4028 28.9682L18.2592 28.2062C19.8849 26.7388 21.2493 26.7246 22.8169 28.1921L23.6733 28.9823L29.8711 22.9572L36.069 16.932L29.8566 10.9069L23.6588 4.86759L12.7581 15.4504L1.8719 26.0332L1.20422 25.3277C0.0575387 24.1142 -0.261789 23.0277 0.217203 21.8989C0.492986 21.2498 21.5686 0.690907 22.3815 0.267594C23.0491 -0.0710562 24.2248 -0.0851666 24.8635 0.225263C25.2699 0.436919 42.0782 16.5228 42.2233 16.8332C42.2669 16.9602 23.8329 34.9934 23.6588 34.9934C23.6152 34.9934 22.1928 33.6388 20.4945 31.9878Z" fill="white"/>
<path d="M112.926 26.4571V18.3436H115.103H117.28V26.4571V34.5706H115.103H112.926V26.4571Z" fill="white"/>
<path d="M60.6723 34.119C59.9465 33.6393 59.5982 32.8773 59.7288 32.0589C59.8159 31.4098 59.932 31.2828 66.5218 24.8767L73.2277 18.3436H76.2758H79.3239L73.2277 24.2699L67.1314 30.1963L75.2597 30.2245L83.3881 30.2669L83.4316 32.3552L83.4752 34.4295H72.3132H61.1512L60.6723 34.119Z" fill="white"/>
<path d="M87.4087 34.1472C87.1474 33.992 86.8136 33.6675 86.6539 33.4135C86.3781 32.962 86.3636 32.6798 86.3636 25.6528V18.3436H88.5409H90.7181V24.2699V30.1963H100.371H110.023V32.3129V34.4295H98.9626C88.1635 34.4295 87.8732 34.4153 87.4087 34.1472Z" fill="white"/>
<path d="M125.815 29.2509C120.14 23.7055 120.067 23.6209 120.329 22.5344C120.474 21.8853 120.88 21.3632 121.446 21.0951C121.824 20.9117 122.723 20.8834 127.136 20.8834H132.376V19.6135V18.3436H134.568H136.759L136.701 20.9963C136.658 23.5221 136.643 23.6491 136.309 24.1147C135.642 25.0319 135.206 25.1166 131.215 25.1166H127.659L132.448 29.773L137.238 34.4295H134.19H131.142L125.815 29.2509Z" fill="white"/>
<path d="M140.678 34.1472C140.417 33.992 140.083 33.6675 139.924 33.4135C139.648 32.962 139.633 32.6798 139.633 25.6528V18.3436H141.811H143.988V24.2699V30.1963H149.91H155.846L156.746 29.7589C157.719 29.2792 158.314 28.6442 158.72 27.6141C158.924 27.1061 158.938 26.3865 158.909 22.6755L158.866 18.3436H161.086H163.293V22.9012C163.293 28.0092 163.235 28.3902 162.306 30.1117C161.609 31.4239 160.201 32.7926 158.851 33.4699C156.979 34.4295 156.964 34.4295 148.633 34.4295C141.433 34.4295 141.143 34.4153 140.678 34.1472Z" fill="white"/>
<path d="M167.4 34.2037C167.139 34.0767 166.776 33.738 166.602 33.4558C166.268 32.9479 166.268 32.9479 166.225 25.6528L166.181 18.3436H168.373H170.55V24.2699V30.1963L180.246 30.2245L189.927 30.2669L189.971 32.3552L190.014 34.4295H178.94C169.084 34.4295 167.807 34.4012 167.4 34.2037Z" fill="white"/>
<path d="M93.6211 23V20.8835H99.427H105.233V23V25.1166H99.427H93.6211V23Z" fill="white"/>
<path d="M173.453 23V20.8835H179.259H185.065V23V25.1166H179.259H173.453V23Z" fill="white"/>
<path d="M59.6562 13.546V11.4295H70.615C82.4446 11.4295 82.1253 11.4154 82.851 12.1773C83.2429 12.5865 83.4752 13.419 83.359 13.9976C83.3155 14.2092 83.0252 14.6749 82.7059 15.0276L82.1253 15.6626H70.8907H59.6562V13.546Z" fill="white"/>
<path d="M86.3927 14.2233C86.4217 12.9957 86.4797 12.6994 86.7555 12.3325C87.4522 11.3871 86.9152 11.4295 99.0496 11.4295H110.023V13.546V15.6626H98.1788H86.3346L86.3927 14.2233Z" fill="white"/>
<path d="M112.969 15.4509C112.926 15.324 112.926 14.689 112.955 14.0258C113.027 12.7559 113.202 12.3749 114 11.7963C114.392 11.5 114.552 11.5 124.741 11.4577L135.076 11.4295L135.569 11.7399C136.484 12.3467 136.643 12.6994 136.701 14.2516L136.759 15.6626H124.915C114.363 15.6626 113.056 15.6344 112.969 15.4509Z" fill="white"/>
<path d="M139.662 14.2233C139.691 12.9957 139.749 12.6994 140.025 12.3325C140.693 11.4153 140.591 11.4295 148.516 11.4295C156.427 11.4295 156.877 11.4718 158.604 12.3043C159.141 12.5583 159.969 13.1086 160.448 13.546C161.29 14.308 162.131 15.2957 162.131 15.5497C162.131 15.6061 157.066 15.6626 150.868 15.6626H139.604L139.662 14.2233Z" fill="white"/>
<path d="M166.297 15.5638C166.138 15.4227 166.181 13.673 166.355 13.0522C166.442 12.7417 166.66 12.3325 166.82 12.1491C167.516 11.4154 167.255 11.4295 179.041 11.4295H190V13.546V15.6626H178.199C171.697 15.6626 166.341 15.6203 166.297 15.5638Z" fill="white"/>
<path d="M22.7158 45.8307C22.2078 45.7037 20.9885 44.5748 13.5279 37.3362L4.93506 28.9969L14.2972 19.8957L23.6593 10.7945L26.8235 13.8705L29.9733 16.9466L29.1895 17.6521C28.2895 18.4705 27.6364 18.7669 26.751 18.7669C25.8801 18.7669 25.2559 18.4846 24.385 17.6945L23.6448 17.0172L17.4759 23.0141L11.3216 28.9969L17.4904 34.9939L23.6593 40.9908L34.5455 30.408L45.4316 19.8251L46.0848 20.4601C46.4477 20.8129 46.8686 21.3491 47.0283 21.6595C47.4056 22.4215 47.4056 23.5503 47.0428 24.2417C46.8831 24.538 42.0061 29.3638 35.9679 35.2196C25.793 45.0969 25.1398 45.6896 24.5011 45.8448C23.7173 46.0282 23.5141 46.0282 22.7158 45.8307Z" fill="#EDB943"/>
<path d="M83.7945 45.873C83.1123 45.7037 82.6333 45.365 82.343 44.8288C82.1398 44.4761 82.0817 43.9117 82.0382 42.2184L81.9801 40.0736H82.7204H83.4607V42.1196C83.4607 44.1233 83.4752 44.1939 83.8235 44.5184C84.0122 44.716 84.317 44.8712 84.4767 44.8712C84.6509 44.8712 84.9412 44.716 85.1299 44.5184C85.4782 44.1939 85.4927 44.1233 85.4927 42.1196V40.0736H86.233H86.9733L86.9152 42.1479C86.8862 43.9258 86.8281 44.3209 86.5668 44.7865C86.1169 45.6472 84.8686 46.127 83.7945 45.873Z" fill="white" fill-opacity="0.5"/>
<path d="M89.4118 45.8166C88.8167 45.6614 88.7586 45.6049 88.7876 45.238C88.8457 44.4902 88.8892 44.462 89.6295 44.6877C90.5294 44.984 91.2116 44.8147 91.2697 44.2644C91.3132 43.9117 91.2406 43.8411 90.3988 43.4742C89.3247 42.9945 88.8457 42.5429 88.7441 41.8939C88.657 41.2871 89.0634 40.6098 89.7311 40.2712C90.2391 40.0031 91.3858 39.9325 92.0825 40.1159C92.4599 40.2147 92.4889 40.2712 92.4018 40.6804C92.2712 41.3012 92.1841 41.3577 91.5164 41.1883C90.7762 41.0049 90.1375 41.2024 90.1375 41.6258C90.1375 41.8374 90.3698 42.0209 91.0665 42.3454C92.2131 42.8816 92.605 43.2767 92.6921 43.9822C92.8663 45.3509 91.1971 46.2822 89.4118 45.8166Z" fill="white" fill-opacity="0.5"/>
<path d="M110.749 45.8166C110.154 45.6614 110.096 45.6049 110.125 45.238C110.183 44.4902 110.226 44.462 110.966 44.6877C111.866 44.9841 112.549 44.8147 112.607 44.2644C112.65 43.9117 112.578 43.8411 111.736 43.4742C110.328 42.8534 109.849 42.1902 110.168 41.273C110.473 40.384 111.62 39.8337 112.839 40.0031C113.739 40.1442 113.84 40.2288 113.724 40.8356C113.623 41.3436 113.594 41.3577 113.158 41.2448C112.128 41.0049 111.489 41.1883 111.474 41.7387C111.474 41.8374 111.895 42.1055 112.403 42.3454C113.681 42.938 114.015 43.3049 114.015 44.1657C114.015 44.8853 113.753 45.3086 113.071 45.6472C112.505 45.9295 111.474 46 110.749 45.8166Z" fill="white" fill-opacity="0.5"/>
<path d="M116.439 45.8589C115.582 45.6896 115.553 45.6473 115.713 45.0405L115.858 44.4902L116.598 44.6877C117.426 44.9135 118.079 44.7865 118.238 44.3773C118.369 44.0528 118.064 43.7847 117.106 43.3614C116.105 42.9239 115.684 42.4724 115.684 41.8233C115.684 40.8356 116.322 40.2006 117.513 40.0031C118.282 39.8902 119.501 40.1724 119.4 40.4546C119.356 40.5675 119.312 40.7368 119.312 40.8215C119.298 41.2307 119.095 41.3295 118.485 41.2025C117.672 41.019 117.092 41.2166 117.164 41.6681C117.193 41.8939 117.455 42.0914 118.137 42.4018C118.645 42.6417 119.182 42.9804 119.327 43.1638C119.661 43.5589 119.69 44.4479 119.385 44.9982C119.022 45.7037 117.672 46.0988 116.439 45.8589Z" fill="white" fill-opacity="0.5"/>
<path d="M124.538 45.8166C123.943 45.6613 123.885 45.6049 123.914 45.238C123.972 44.4902 124.015 44.462 124.756 44.6877C125.655 44.984 126.338 44.8147 126.396 44.2644C126.439 43.9117 126.367 43.8411 125.525 43.4742C124.117 42.8534 123.638 42.1902 123.957 41.273C124.262 40.384 125.409 39.8337 126.628 40.0031C127.528 40.1442 127.63 40.2288 127.513 40.8356C127.412 41.3436 127.383 41.3577 126.947 41.2448C125.917 41.0049 125.278 41.1883 125.264 41.7386C125.264 41.8374 125.684 42.1055 126.207 42.3595C127.499 42.9521 127.934 43.4601 127.833 44.2644C127.731 45.2239 127.078 45.7601 125.844 45.9153C125.481 45.9577 124.901 45.9153 124.538 45.8166Z" fill="white" fill-opacity="0.5"/>
<path d="M131.302 45.8307C130.053 45.5061 129.197 44.081 129.371 42.5994C129.589 40.7932 131.244 39.6221 132.927 40.0595C134.219 40.3982 134.989 41.4847 134.989 42.9663C134.989 44.4902 134.205 45.5344 132.811 45.8448C132.057 46.0141 132.042 46.0141 131.302 45.8307ZM132.724 44.716C133.29 44.462 133.581 43.7141 133.508 42.7123C133.45 41.9785 133.377 41.8092 132.985 41.4705C132.39 40.9485 131.882 40.9485 131.36 41.4564C130.576 42.2184 130.634 43.954 131.461 44.5748C131.882 44.9135 132.202 44.9417 132.724 44.716Z" fill="white" fill-opacity="0.5"/>
<path d="M143.436 45.8589C143.175 45.8025 142.783 45.6049 142.58 45.4215C141.927 44.8288 141.811 44.335 141.811 42.1196V40.0736H142.464H143.117V41.908C143.117 44.0246 143.291 44.6595 143.915 44.8147C144.51 44.9558 144.96 44.6736 145.134 44.0669C145.222 43.7706 145.294 42.7546 145.294 41.8092V40.0736H145.962H146.615L146.571 42.3031C146.528 44.3632 146.499 44.5466 146.194 44.9841C145.628 45.746 144.481 46.1129 143.436 45.8589Z" fill="white" fill-opacity="0.5"/>
<path d="M159.446 45.873C157.617 45.4356 156.79 43.3331 157.719 41.5129C158.532 39.9325 160.636 39.481 162.001 40.5957C162.654 41.1319 163.002 41.9503 163.002 42.9663C163.002 44.4902 162.218 45.5344 160.825 45.8448C160.099 46.0141 160.056 46.0141 159.446 45.873ZM160.738 44.7159C161.841 44.2221 161.783 41.8233 160.651 41.2166C159.127 40.384 158.053 43.5025 159.475 44.589C159.896 44.9135 160.215 44.9417 160.738 44.7159Z" fill="white" fill-opacity="0.5"/>
<path d="M172.147 45.8166C171.552 45.6613 171.493 45.6049 171.523 45.238C171.581 44.4902 171.624 44.462 172.364 44.6877C173.264 44.984 173.947 44.8147 174.005 44.2644C174.048 43.9117 173.976 43.8411 173.134 43.4742C172.06 42.9945 171.581 42.5429 171.479 41.8939C171.392 41.2871 171.798 40.6098 172.466 40.2712C172.974 40.0031 174.121 39.9325 174.817 40.1159C175.195 40.2147 175.224 40.257 175.122 40.7509C175.064 41.0331 175.006 41.2871 174.977 41.3153C174.963 41.3294 174.643 41.2871 174.28 41.2024C173.468 41.0331 172.872 41.2024 172.872 41.6258C172.872 41.8374 173.105 42.0209 173.801 42.3454C175.079 42.938 175.413 43.3049 175.413 44.1656C175.413 44.8853 175.151 45.3086 174.469 45.6472C173.903 45.9294 172.872 46 172.147 45.8166Z" fill="white" fill-opacity="0.5"/>
<path d="M75.9129 42.9663V40.0736H77.2918C78.8159 40.0736 79.4981 40.2712 79.89 40.7933C80.2239 41.273 80.1803 41.8233 79.7594 42.3031L79.3965 42.7264L79.8319 43.1497C80.6883 43.9822 80.2239 45.3791 78.9901 45.7178C78.6998 45.7884 77.8869 45.8589 77.1902 45.8589H75.9129V42.9663ZM78.5401 44.7301C78.932 44.5184 78.903 43.827 78.4966 43.5448C78.3224 43.4178 78.0031 43.319 77.7853 43.319C77.466 43.319 77.3789 43.4037 77.3063 43.7564C77.1176 44.716 77.1757 44.8712 77.7418 44.8712C78.0176 44.8712 78.3804 44.8006 78.5401 44.7301ZM78.395 42.1902C78.6998 42.0209 78.7578 41.4847 78.4966 41.2307C78.395 41.1319 78.1047 41.0614 77.8434 41.0614C77.3789 41.0614 77.3644 41.0755 77.3644 41.6963C77.3644 42.289 77.3934 42.3313 77.7418 42.3313C77.945 42.3313 78.2353 42.2607 78.395 42.1902Z" fill="white" fill-opacity="0.5"/>
<path d="M94.492 42.9663V40.0736H95.2177H95.9435V42.9663V45.8589H95.2177H94.492V42.9663Z" fill="white" fill-opacity="0.5"/>
<path d="M97.8304 42.9663V40.0595L98.6432 40.1018L99.4706 40.1442L100.458 41.908L101.459 43.6718V41.8798V40.0736H102.112H102.765V42.9663V45.8589H102.054C101.227 45.8589 101.299 45.9436 99.906 43.3755L99.0642 41.8092L99.1222 43.827L99.1658 45.8589H98.4981H97.8304V42.9663Z" fill="white" fill-opacity="0.5"/>
<path d="M104.652 42.9663V40.0736H106.539H108.426V40.638V41.2025H107.265H106.104V41.7669V42.3313H107.193H108.281V42.8957V43.4601H107.193H106.104V44.0951V44.7301H107.251C107.889 44.7301 108.441 44.7724 108.47 44.8429C108.513 44.8994 108.499 45.1534 108.47 45.4074L108.397 45.8589H106.525H104.652V42.9663Z" fill="white" fill-opacity="0.5"/>
<path d="M136.73 42.9663V40.0736H137.456H138.182V42.4018V44.7301H139.358H140.519L140.475 45.2663L140.432 45.7884L138.588 45.8307L136.73 45.873V42.9663Z" fill="white" fill-opacity="0.5"/>
<path d="M149.794 44.6172C149.794 43.9258 149.75 42.8816 149.707 42.289L149.605 41.2025H148.908H148.197V40.638V40.0736H150.447H152.697V40.638V41.2025H151.898H151.1V43.5307V45.8589H150.447H149.794V44.6172Z" fill="white" fill-opacity="0.5"/>
<path d="M154.148 42.9663V40.0736H154.874H155.6V42.9663V45.8589H154.874H154.148V42.9663Z" fill="white" fill-opacity="0.5"/>
<path d="M164.744 42.9663V40.0736H165.528H166.326L167.11 41.4564C167.545 42.2043 168.01 43.0227 168.141 43.2485C168.358 43.6577 168.358 43.5871 168.373 41.8798V40.0736H169.026H169.679V42.9663V45.8589H168.968C168.141 45.8589 168.213 45.9436 166.82 43.3755L165.978 41.8092L166.021 43.827L166.065 45.8589H165.412H164.744V42.9663Z" fill="white" fill-opacity="0.5"/>
</g>
<defs>
<clipPath id="clip0">
<rect width="190" height="46" fill="white"/>
</clipPath>
</defs>
</svg>
