<svg width="16" height="15" viewBox="0 0 16 15" fill="none" xmlns="http://www.w3.org/2000/svg">
<g clip-path="url(#clip0)">
<path d="M12.4515 14.418H4.49109C2.55459 14.418 0.979126 12.8409 0.979126 10.9023V4.09766C0.979126 2.15914 2.55459 0.582031 4.49109 0.582031H12.4515C14.388 0.582031 15.9635 2.15914 15.9635 4.09766V10.9023C15.9635 12.8409 14.388 14.418 12.4515 14.418ZM4.49109 1.75391C3.20009 1.75391 2.14978 2.80531 2.14978 4.09766V10.9023C2.14978 12.1947 3.20009 13.2461 4.49109 13.2461H12.4515C13.7425 13.2461 14.7928 12.1947 14.7928 10.9023V4.09766C14.7928 2.80531 13.7425 1.75391 12.4515 1.75391H4.49109ZM10.6161 9.53728L13.5093 7.32502C13.7662 7.12858 13.8153 6.76088 13.6191 6.50371C13.4228 6.24654 13.0555 6.19732 12.7986 6.39376L9.90586 8.60576C9.07057 9.24353 7.90404 9.24399 7.0682 8.60737L4.26504 6.42607C4.0098 6.22744 3.64204 6.27358 3.44368 6.52908C3.24528 6.78458 3.29134 7.1527 3.54658 7.3513L6.3519 9.53427L6.35618 9.53755C6.98318 10.0163 7.73444 10.2556 8.48589 10.2556C9.23733 10.2556 9.98892 10.0161 10.6161 9.53728Z" fill="white"/>
</g>
<defs>
<clipPath id="clip0">
<rect width="14.9844" height="15" fill="white" transform="translate(0.979126)"/>
</clipPath>
</defs>
</svg>
