<svg width="17" height="20" viewBox="0 0 17 20" fill="none" xmlns="http://www.w3.org/2000/svg">
<g clip-path="url(#clip0)">
<path d="M16.2855 17.5056C16.287 17.5043 16.2886 17.5029 16.2903 17.5014M16.2855 17.5056L16.2801 17.5111C16.2801 17.5111 16.2802 17.5111 16.2802 17.511C16.2802 17.511 16.2802 17.511 16.2802 17.511L16.2822 17.5123L16.283 17.5128L16.3159 17.54M16.2855 17.5056L16.2855 17.5056M16.2855 17.5056L16.2836 17.5075C16.2841 17.5069 16.2848 17.5063 16.2855 17.5056M16.2903 17.5014L16.3197 17.5368M16.2903 17.5014C16.3031 17.4909 16.3244 17.4785 16.354 17.4785V17.5593L16.3197 17.5368M16.2903 17.5014L16.2903 17.5014C16.2885 17.5029 16.2869 17.5043 16.2855 17.5056M16.3197 17.5368L16.3073 17.5287L16.3041 17.5266L16.3159 17.54M16.3197 17.5368L16.3362 17.5568L16.3251 17.5476L16.3159 17.54M16.3159 17.54L16.3276 17.5532L16.3321 17.5583L16.333 17.5593L16.3336 17.56L16.2799 17.5114C16.2793 17.5121 16.2787 17.5127 16.2782 17.5134M16.2782 17.5134L16.2855 17.5056M16.2782 17.5134C16.2776 17.514 16.2771 17.5147 16.2765 17.5154L16.3307 17.5595L16.275 17.5173L16.2782 17.5134ZM16.2777 17.5138C16.2694 17.5237 16.2649 17.533 16.2628 17.5375L16.347 17.5752L16.3394 17.5666L16.2777 17.5138ZM16.2777 17.5138C16.278 17.5135 16.2783 17.5132 16.2786 17.5128L16.2777 17.5138ZM16.2791 17.5122L16.2435 17.5513C15.2932 18.5783 13.9195 19.1673 12.3697 19.1564H12.3695C11.2164 19.15 9.95471 18.8272 8.61878 18.1918C8.33469 18.0566 8.19433 17.6844 8.32246 17.3569C8.44907 17.0332 8.78068 16.8966 9.05845 17.0287L9.1014 16.9384L9.05845 17.0287C10.2319 17.5868 11.3787 17.8875 12.3749 17.893C12.375 17.893 12.375 17.893 12.375 17.893L12.3756 17.793L16.2791 17.5122ZM16.2791 17.5122C16.7007 16.9927 16.9213 16.3218 16.8984 15.6217C16.8754 14.9202 16.6105 14.2677 16.1548 13.7831L16.1547 13.7829C15.3001 12.8699 14.4509 12.1959 13.6047 11.9724C13.1842 11.8614 12.7642 11.8616 12.3419 11.9998C11.9189 12.1381 11.4877 12.4169 11.049 12.8719L11.0465 12.8745L11.0463 12.8748L10.1492 13.8566L10.0931 13.918L10.0226 13.8741C9.45459 13.521 8.32329 12.6913 7.1388 11.3852C5.95419 10.079 5.20199 8.83174 4.88274 8.20728L4.85142 8.146L4.89746 8.09486L5.78788 7.10563L5.78813 7.10535L5.78985 7.10346C6.61307 6.13772 6.81165 5.19444 6.60941 4.26309C6.40547 3.32396 5.79154 2.38571 4.96429 1.44376L4.96416 1.44361C4.52477 0.941212 3.93686 0.652964 3.30891 0.627959L16.2791 17.5122ZM4.09845 14.7674L4.09867 14.7677L4.10397 14.7735L4.10447 14.774C4.57064 15.2873 5.10048 15.7959 5.6794 16.2853L5.67941 16.2853C5.92309 16.4914 6.27209 16.4437 6.46304 16.1691C6.65775 15.8891 6.60761 15.488 6.35776 15.2768L6.42232 15.2004L6.35775 15.2768C5.81604 14.8188 5.32163 14.3444 4.88835 13.8667L4.96243 13.7995L4.88835 13.8666L4.88283 13.8606L4.88224 13.86C2.61827 11.3607 1.25275 8.28525 1.24074 5.62584C1.23445 4.24465 1.61131 3.08002 2.34226 2.26567L2.34605 2.26145L2.34616 2.26156L2.35124 2.25651L2.35141 2.25634C2.87522 1.73795 3.67208 1.77042 4.15943 2.32773C5.02141 3.31339 5.43589 4.0544 5.52909 4.66839C5.62391 5.29302 5.38418 5.76815 4.99348 6.20994L4.9929 6.2106L4.99289 6.21059L3.76291 7.57702C3.59667 7.76172 3.54848 8.04375 3.64603 8.28552C4.14819 9.51476 5.18235 10.9895 6.3694 12.295C7.55685 13.601 8.88665 14.7259 9.97313 15.2635C10.1816 15.3658 10.4268 15.3181 10.5925 15.1367L11.8315 13.7807L11.8321 13.78C12.2312 13.3508 12.6684 13.0785 13.2479 13.1854C13.8121 13.2894 14.4869 13.7504 15.3794 14.6994L15.3066 14.768L4.09845 14.7674ZM4.09845 14.7674C2.42057 12.9001 1.00284 10.4793 0.40453 8.0504C-0.193214 5.62382 0.0288811 3.2012 1.60892 1.3063M4.09845 14.7674L1.60892 1.3063M4.03044 14.8412C4.49982 15.3581 5.03286 15.8696 5.61484 16.3617L4.03044 14.8412ZM4.03044 14.8412L4.02407 14.8343L4.03044 14.8412ZM1.60892 1.3063C2.07912 0.842636 2.68232 0.603131 3.30889 0.627959L1.60892 1.3063ZM13.89 9.29159L13.8895 9.29186C13.6232 9.43516 13.2814 9.31766 13.143 8.99831L13.1429 8.99808C13.0027 8.67714 13.1286 8.2982 13.4081 8.14981L13.3612 8.06149L13.4081 8.14981L16.0954 6.7231C16.3685 6.57808 16.7043 6.69992 16.8426 7.01662C16.9827 7.33755 16.8568 7.71649 16.5773 7.86488L16.6242 7.9532L16.5773 7.86488L13.89 9.29159ZM14.4151 2.49051L14.341 2.42334L14.4151 2.49051C14.6345 2.24854 14.9859 2.24853 15.2054 2.49051C15.4299 2.73811 15.4299 3.14326 15.2054 3.39085L10.8593 8.18315C10.6398 8.42513 10.2885 8.42513 10.069 8.18315C9.84447 7.93555 9.84447 7.5304 10.069 7.28281L14.4151 2.49051ZM16.2786 17.5128C16.2789 17.5125 16.2791 17.5123 16.2793 17.512L16.2786 17.5128ZM9.32791 4.79222L9.32742 4.79196C9.04786 4.64353 8.92205 4.26462 9.06217 3.9437L10.356 0.980523C10.4943 0.663823 10.83 0.541946 11.1032 0.687005C11.3828 0.835396 11.5086 1.21433 11.3685 1.53527L10.0746 4.49844L10.0745 4.49867C9.936 4.81802 9.59421 4.93553 9.32791 4.79222Z" fill="white" fill-opacity="0.59" stroke="#34466E" stroke-width="0.2"/>
</g>
<defs>
<clipPath id="clip0">
<rect width="17" height="18.7453" fill="white" transform="translate(0 0.517334)"/>
</clipPath>
</defs>
</svg>
